# Blender v2.78 (sub 0) OBJ File: 'SmallHouse.blend'
# www.blender.org
mtllib House5.mtl
o Cube_Cube.002
v -0.602511 2.031580 0.723893
v -0.602511 2.044969 0.669412
v -0.602511 1.604321 -0.318354
v -0.602511 0.034607 -0.318354
v -0.602511 0.034607 1.681646
v -0.602511 1.604321 1.681646
v -0.766397 2.050426 0.681646
v -0.446036 2.031580 0.723893
v -0.550903 2.044969 0.669412
v -0.766397 1.531211 -0.482239
v 2.602715 1.531211 -0.482239
v 2.602715 2.050426 0.681646
v 2.438830 1.604321 -0.318354
v 1.688759 0.965499 -0.318354
v 1.688759 0.502083 -0.318354
v 2.345677 0.965499 -0.318354
v 2.438830 0.034607 -0.318354
v 2.438830 0.034607 1.681646
v 1.525867 0.034607 1.681646
v 1.525867 0.034607 1.630396
v 1.061105 0.034607 1.630396
v 1.061105 0.034607 1.681646
v 0.798889 0.034607 1.681646
v 0.798889 0.034607 1.588378
v -0.240685 0.034607 1.588378
v -0.240685 0.034607 1.681646
v -0.240685 0.966986 1.681646
v 0.798889 0.966986 1.681646
v 1.061105 0.034826 1.681646
v 1.059534 0.034826 1.681646
v 1.059534 0.759069 1.681646
v 1.525658 0.759069 1.681646
v 1.688759 0.910039 1.681646
v 1.688759 0.965499 1.681646
v 1.748675 0.965499 1.681646
v 2.438830 1.604321 1.681646
v -0.766397 1.531211 1.845531
v 2.438830 2.049104 0.684609
v 2.438830 2.050063 0.680831
v -0.766397 2.333738 0.681646
v -0.766397 1.814522 -0.482239
v 2.602715 1.814522 -0.482239
v 2.602715 2.333738 0.681646
v 2.345677 0.965499 -0.301554
v 1.688759 0.965499 -0.301554
v 1.688759 0.502083 -0.301554
v 2.345677 0.502083 -0.318354
v 1.525867 0.034752 1.681646
v 0.798889 0.966986 1.588378
v -0.240685 0.966986 1.588378
v 1.061105 0.034826 1.681646
v 1.059534 0.034826 1.630370
v 1.059534 0.759069 1.630370
v 1.525658 0.759069 1.630370
v 2.345677 0.965499 1.681646
v 2.345677 0.502083 1.681646
v 1.688759 0.502083 1.681646
v 1.525658 0.135883 1.681646
v 1.525867 0.135883 1.681646
v 1.688759 0.502083 1.651670
v 1.688759 0.965499 1.651670
v 2.345677 0.965499 1.651670
v 2.602715 1.531211 1.845531
v -0.766397 1.814522 1.845531
v -0.404077 2.103067 0.164569
v -0.404077 1.972027 -0.129174
v -0.110334 1.972027 -0.129174
v -0.110334 2.103067 0.164569
v 2.602715 1.814522 1.845531
v 2.345677 0.502083 -0.301554
v 1.525658 0.034826 1.630370
v 1.525658 0.034826 1.630396
v 1.525658 0.135883 1.630396
v 2.345677 0.502083 1.651670
v -0.404077 2.234663 0.164569
v -0.404077 2.234663 -0.129174
v -0.110334 2.234663 -0.129174
v -0.110334 2.234663 0.164569
v -0.420518 2.222652 0.181010
v -0.420518 2.222652 -0.145615
v -0.093893 2.222652 -0.145615
v -0.093893 2.222652 0.181010
v -0.420518 2.461278 0.181010
v -0.420518 2.461278 -0.145615
v -0.093893 2.461278 -0.145615
v -0.093893 2.461278 0.181010
v -0.373824 2.461278 0.134316
v -0.373824 2.461278 -0.098921
v -0.140587 2.461278 -0.098921
v -0.140587 2.461278 0.134316
v -0.373824 2.191994 0.134316
v -0.373824 2.191994 -0.098921
v -0.140587 2.191994 -0.098921
v -0.140587 2.191994 0.134316
v 1.525867 0.135883 1.630396
vt 0.0469 0.9336
vt 0.0367 0.9395
vt 0.0469 0.9570
vt 0.8446 0.8755
vt 0.8637 0.8663
vt 0.8425 0.8663
vt 0.8640 0.8579
vt 0.8422 0.8796
vt 0.8422 0.8579
vt 0.8637 0.8663
vt 0.8578 0.8589
vt 0.8446 0.8755
vt 0.0447 0.9394
vt 0.0352 0.9570
vt 0.0352 0.9336
vt 0.0586 0.9336
vt 0.0363 0.9444
vt 0.0363 0.9364
vt 0.0467 0.9452
vt 0.0478 0.9464
vt 0.0456 0.9510
vt 0.8422 0.8796
vt 0.8640 0.8579
vt 0.8640 0.8796
vt 0.8640 0.8579
vt 0.8422 0.8796
vt 0.8422 0.8579
vt 0.8640 0.8579
vt 0.8422 0.8796
vt 0.8422 0.8579
vt 0.8422 0.8579
vt 0.8640 0.8796
vt 0.8422 0.8796
vt 0.8437 0.8742
vt 0.8626 0.8742
vt 0.8626 0.8633
vt 0.0676 0.9429
vt 0.0584 0.9431
vt 0.0581 0.9429
vt 0.0577 0.9497
vt 0.0574 0.9500
vt 0.0447 0.9343
vt 0.0586 0.9336
vt 0.0570 0.9512
vt 0.0367 0.9395
vt 0.0367 0.9512
vt 0.0586 0.9500
vt 0.0586 0.9570
vt 0.0586 0.9500
vt 0.0759 0.9073
vt 0.0711 0.9277
vt 0.0698 0.9260
vt 0.0658 0.0997
vt 0.0445 0.1172
vt 0.0385 0.0997
vt 0.0471 0.9081
vt 0.0552 0.9243
vt 0.0539 0.9260
vt 0.0586 0.9464
vt 0.0586 0.9464
vt 0.0586 0.9464
vt 0.0404 0.9402
vt 0.0411 0.9500
vt 0.0404 0.9500
vt 0.0411 0.9563
vt 0.0404 0.9563
vt 0.0523 0.9510
vt 0.0571 0.9500
vt 0.0762 0.9396
vt 0.0791 0.9288
vt 0.0771 0.9409
vt 0.0783 0.9420
vt 0.0936 0.9411
vt 0.8422 0.8579
vt 0.8640 0.8796
vt 0.8422 0.8796
vt 0.8574 0.8754
vt 0.8640 0.8796
vt 0.8519 0.8754
vt 0.8640 0.8579
vt 0.8422 0.8796
vt 0.8422 0.8579
vt 0.0669 0.9500
vt 0.0673 0.9432
vt 0.9500 0.0894
vt 0.9250 0.0692
vt 0.9521 0.0693
vt 0.0666 0.9498
vt 0.0646 0.0798
vt 0.0322 0.0296
vt 0.0646 0.0296
vt 0.0411 0.9660
vt 0.0411 0.9660
vt 0.0411 0.9646
vt 0.0946 0.9420
vt 0.0948 0.9293
vt 0.0957 0.9284
vt 0.0785 0.9280
vt 0.9395 0.0695
vt 0.9504 0.0788
vt 0.9379 0.0787
vt 0.8437 0.8633
vt 0.8531 0.8796
vt 0.8626 0.8742
vt 0.8640 0.8579
vt 0.8422 0.8796
vt 0.8422 0.8579
vt 0.8640 0.8579
vt 0.8422 0.8796
vt 0.0426 0.9637
vt 0.0422 0.9643
vt 0.0425 0.9641
vt 0.0435 0.9640
vt 0.0431 0.9637
vt 0.0433 0.9639
vt 0.0438 0.9643
vt 0.0433 0.9637
vt 0.0434 0.9641
vt 0.0427 0.9637
vt 0.0426 0.9640
vt 0.0428 0.9637
vt 0.0434 0.9645
vt 0.0433 0.9644
vt 0.0434 0.9645
vt 0.0427 0.9644
vt 0.0428 0.9644
vt 0.0428 0.9644
vt 0.0424 0.9645
vt 0.0425 0.9645
vt 0.0425 0.9645
vt 0.0434 0.9645
vt 0.0432 0.9645
vt 0.0434 0.9645
vt 0.0432 0.9658
vt 0.0438 0.9653
vt 0.0435 0.9654
vt 0.0426 0.9656
vt 0.0427 0.9658
vt 0.0429 0.9658
vt 0.0425 0.9654
vt 0.0424 0.9659
vt 0.0428 0.9658
vt 0.0431 0.9658
vt 0.0435 0.9655
vt 0.0433 0.9656
vt 0.0435 0.9658
vt 0.0434 0.9658
vt 0.0435 0.9658
vt 0.0427 0.9658
vt 0.0428 0.9659
vt 0.0428 0.9659
vt 0.0421 0.9657
vt 0.0423 0.9656
vt 0.0423 0.9656
vt 0.0432 0.9656
vt 0.0436 0.9656
vt 0.0436 0.9656
vt 0.0434 0.9639
vt 0.0433 0.9641
vt 0.0436 0.9643
vt 0.0426 0.9641
vt 0.0429 0.9638
vt 0.0428 0.9638
vt 0.0424 0.9643
vt 0.0428 0.9639
vt 0.0425 0.9639
vt 0.0432 0.9638
vt 0.0432 0.9640
vt 0.0434 0.9641
vt 0.0423 0.9647
vt 0.0425 0.9644
vt 0.0424 0.9646
vt 0.0000 0.0000
vt 0.0000 0.0000
vt 0.0000 0.0000
vt 0.0000 0.0000
vt 0.0000 0.0000
vt 0.0352 0.9500
vt 0.0000 0.0000
vt 0.0367 0.9512
vt 0.0570 0.9512
vt 0.0570 0.9395
vt 0.8578 0.8589
vt 0.8484 0.8589
vt 0.8616 0.8755
vt 0.8640 0.8796
vt 0.8531 0.8796
vt 0.8616 0.8755
vt 0.8484 0.8589
vt 0.8425 0.8663
vt 0.0516 0.9394
vt 0.0586 0.9570
vt 0.0352 0.9364
vt 0.0352 0.9336
vt 0.0586 0.9570
vt 0.0352 0.9570
vt 0.0352 0.9500
vt 0.0358 0.9500
vt 0.0358 0.9463
vt 0.0352 0.9464
vt 0.0352 0.9444
vt 0.0352 0.9336
vt 0.0586 0.9336
vt 0.0451 0.9368
vt 0.0586 0.9364
vt 0.0447 0.9517
vt 0.0352 0.9570
vt 0.0478 0.9500
vt 0.0455 0.9512
vt 0.0586 0.9444
vt 0.0586 0.9464
vt 0.8422 0.8579
vt 0.8640 0.8796
vt 0.8640 0.8796
vt 0.8531 0.8579
vt 0.8437 0.8633
vt 0.0516 0.9343
vt 0.0469 0.9570
vt 0.0570 0.9395
vt 0.0469 0.9336
vt 0.0779 0.9080
vt 0.0595 0.1190
vt 0.0494 0.9073
vt 0.0411 0.9402
vt 0.0449 0.9562
vt 0.0571 0.9500
vt 0.0517 0.9562
vt 0.0765 0.9414
vt 0.8640 0.8579
vt 0.8422 0.8796
vt 0.8519 0.8773
vt 0.8574 0.8773
vt 0.8640 0.8796
vt 0.9229 0.0892
vt 0.0322 0.0798
vt 0.0404 0.9646
vt 0.9513 0.0699
vt 0.8626 0.8633
vt 0.8531 0.8579
vt 0.8437 0.8742
vt 0.8640 0.8796
vt 0.8640 0.8796
vt 0.0424 0.9637
vt 0.0432 0.9637
vt 0.0435 0.9637
vt 0.0424 0.9640
vt 0.0434 0.9644
vt 0.0427 0.9644
vt 0.0424 0.9645
vt 0.0432 0.9645
vt 0.0435 0.9659
vt 0.0424 0.9655
vt 0.0421 0.9653
vt 0.0432 0.9658
vt 0.0434 0.9658
vt 0.0427 0.9658
vt 0.0421 0.9657
vt 0.0433 0.9656
vt 0.0431 0.9639
vt 0.0428 0.9640
vt 0.0427 0.9641
vt 0.0431 0.9638
vt 0.0424 0.9645
vt 0.0000 0.0000
vn -1.0000 0.0000 0.0000
vn 0.0000 -0.9132 -0.4074
vn 0.0000 0.9711 0.2387
vn 0.0000 -0.9132 0.4074
vn 0.0000 0.0000 -1.0000
vn 0.0000 -1.0000 0.0000
vn 0.0000 0.0000 1.0000
vn -0.0026 0.9699 0.2433
vn 1.0000 0.0000 0.0000
vn -0.0000 -0.9133 0.4074
vn 0.0000 0.9132 -0.4074
vn 0.0000 1.0000 0.0000
vn 0.0000 0.9132 0.4074
vn 0.5899 -0.8075 0.0000
vn 0.0000 -0.8075 0.5899
vn -0.5899 -0.8075 0.0000
vn 0.0000 -0.8075 -0.5899
vn 0.0005 0.0000 1.0000
vn -1.0000 -0.0021 0.0000
vn 0.0000 -0.9132 -0.4075
vn -0.0025 0.9693 0.2458
vn 0.0000 -0.9132 0.4076
vn 1.0000 -0.0001 0.0000
usemtl Material.002
s off
f 4/1/1 5/2/1 1/3/1
f 1/4/2 7/5/2 8/6/2
f 9/7/3 1/8/3 8/9/3
f 10/10/4 11/11/4 3/12/4
f 14/13/5 3/14/5 13/15/5
f 4/16/6 24/17/6 25/18/6
f 28/19/7 31/20/7 34/21/7
f 8/22/8 39/23/8 9/24/8
f 41/25/1 7/26/1 40/27/1
f 42/28/5 10/29/5 41/30/5
f 42/31/9 12/32/9 11/33/9
f 7/34/10 9/35/10 39/36/10
f 16/37/6 45/38/6 14/39/6
f 14/39/9 46/40/9 15/41/9
f 16/42/5 13/15/5 17/43/5
f 38/44/9 17/45/9 13/46/9
f 19/47/7 18/48/7 48/49/7
f 24/50/1 28/51/1 49/52/1
f 24/53/7 50/54/7 25/55/7
f 26/56/9 50/57/9 27/58/9
f 27/58/6 49/52/6 28/51/6
f 51/59/7 30/60/7 29/61/7
f 30/62/9 53/63/9 31/64/9
f 31/64/6 54/65/6 32/66/6
f 18/48/7 57/67/7 59/68/7
f 33/69/9 60/70/9 61/71/9
f 35/72/6 61/71/6 62/73/6
f 64/74/1 7/75/1 37/76/1
f 67/77/11 42/28/11 41/78/11
f 42/28/11 67/77/11 68/79/11
f 69/80/9 12/81/9 43/82/9
f 47/83/1 44/84/1 16/37/1
f 70/85/5 45/86/5 44/87/5
f 15/41/12 70/88/12 47/83/12
f 54/89/7 52/90/7 71/91/7
f 71/92/1 72/93/1 73/94/1
f 55/95/1 74/96/1 56/97/1
f 56/97/12 60/70/12 57/98/12
f 60/99/7 62/100/7 61/101/7
f 63/102/2 6/103/2 36/104/2
f 64/105/7 63/106/7 69/107/7
f 43/108/13 64/109/13 69/107/13
f 65/110/1 76/111/1 66/112/1
f 76/113/5 67/114/5 66/115/5
f 77/116/9 68/117/9 67/118/9
f 78/119/7 65/120/7 68/121/7
f 76/122/14 79/123/14 80/124/14
f 76/125/15 81/126/15 77/127/15
f 77/128/16 82/129/16 78/130/16
f 75/131/17 82/132/17 79/133/17
f 79/134/1 84/135/1 80/136/1
f 80/137/5 85/138/5 81/139/5
f 81/140/9 86/141/9 82/142/9
f 82/143/7 83/144/7 79/145/7
f 84/146/12 87/147/12 88/148/12
f 84/149/12 89/150/12 85/151/12
f 85/152/12 90/153/12 86/154/12
f 86/155/12 87/156/12 83/157/12
f 87/158/9 92/159/9 88/160/9
f 88/161/7 93/162/7 89/163/7
f 89/164/1 94/165/1 90/166/1
f 90/167/5 91/168/5 87/169/5
f 93/170/12 91/171/12 94/172/12
f 95/173/18 72/174/18 20/175/18
f 58/176/6 95/173/6 59/177/6
f 20/178/19 58/176/19 73/179/19
f 6/180/1 1/3/1 5/2/1
f 2/181/1 3/182/1 1/3/1
f 4/1/1 1/3/1 3/182/1
f 1/4/2 6/103/2 7/5/2
f 7/5/20 12/183/20 38/184/20
f 38/184/2 8/6/2 7/5/2
f 6/103/2 37/185/2 7/5/2
f 9/7/3 2/186/3 1/8/3
f 3/12/4 2/187/4 7/188/4
f 11/11/4 12/189/4 13/190/4
f 3/12/4 7/188/4 10/10/4
f 11/11/4 13/190/4 3/12/4
f 14/13/5 15/191/5 4/192/5
f 4/192/5 3/14/5 14/13/5
f 13/15/5 16/42/5 14/13/5
f 26/193/6 5/194/6 25/18/6
f 4/16/6 17/195/6 24/17/6
f 18/196/6 19/197/6 20/198/6
f 21/199/6 22/200/6 23/201/6
f 17/195/6 18/196/6 20/198/6
f 21/199/6 23/201/6 24/17/6
f 17/195/6 20/198/6 21/199/6
f 25/18/6 5/194/6 4/16/6
f 17/195/6 21/199/6 24/17/6
f 6/202/7 5/203/7 27/204/7
f 5/203/7 26/205/7 27/204/7
f 35/206/7 36/207/7 34/21/7
f 32/208/7 33/209/7 34/21/7
f 34/21/7 36/207/7 28/19/7
f 6/202/7 27/204/7 28/19/7
f 23/210/7 22/211/7 30/60/7
f 22/211/7 29/61/7 30/60/7
f 36/207/7 6/202/7 28/19/7
f 28/19/7 23/210/7 31/20/7
f 31/20/7 32/208/7 34/21/7
f 23/210/7 30/60/7 31/20/7
f 8/22/21 38/212/21 39/23/21
f 41/25/1 10/213/1 7/26/1
f 42/28/5 11/214/5 10/29/5
f 42/31/9 43/108/9 12/32/9
f 39/36/4 13/215/4 12/216/4
f 12/216/22 7/34/22 39/36/22
f 2/187/4 9/35/4 7/34/4
f 16/37/6 44/84/6 45/38/6
f 14/39/9 45/38/9 46/40/9
f 4/192/5 15/191/5 17/43/5
f 47/217/5 16/42/5 17/43/5
f 17/43/5 15/191/5 47/217/5
f 13/46/23 39/218/23 38/44/23
f 38/44/9 36/219/9 18/220/9
f 18/220/9 17/45/9 38/44/9
f 24/50/1 23/221/1 28/51/1
f 24/53/7 49/222/7 50/54/7
f 26/56/9 25/223/9 50/57/9
f 27/58/6 50/57/6 49/52/6
f 30/62/9 52/224/9 53/63/9
f 31/64/6 53/63/6 54/65/6
f 36/207/7 35/206/7 55/225/7
f 36/207/7 55/225/7 18/48/7
f 59/68/7 48/49/7 18/48/7
f 32/208/7 58/226/7 57/67/7
f 57/67/7 33/209/7 32/208/7
f 18/48/7 55/225/7 56/227/7
f 57/67/7 58/226/7 59/68/7
f 18/48/7 56/227/7 57/67/7
f 61/71/9 34/228/9 33/69/9
f 33/69/9 57/98/9 60/70/9
f 62/73/6 55/95/6 35/72/6
f 35/72/6 34/228/6 61/71/6
f 64/74/1 40/229/1 7/75/1
f 41/78/11 40/230/11 65/231/11
f 66/232/11 67/77/11 41/78/11
f 41/78/11 65/231/11 66/232/11
f 65/231/11 40/230/11 68/79/11
f 43/82/11 42/28/11 68/79/11
f 68/79/11 40/230/11 43/82/11
f 69/80/9 63/233/9 12/81/9
f 47/83/1 70/88/1 44/84/1
f 70/85/5 46/234/5 45/86/5
f 15/41/12 46/40/12 70/88/12
f 54/89/7 53/235/7 52/90/7
f 73/94/1 58/236/1 32/66/1
f 54/65/1 71/92/1 73/94/1
f 73/94/1 32/66/1 54/65/1
f 55/95/1 62/73/1 74/96/1
f 56/97/12 74/96/12 60/70/12
f 60/99/7 74/237/7 62/100/7
f 38/238/2 12/239/2 36/104/2
f 63/102/2 37/240/2 6/103/2
f 36/104/2 12/239/2 63/102/2
f 64/105/7 37/241/7 63/106/7
f 43/108/13 40/242/13 64/109/13
f 65/110/1 75/243/1 76/111/1
f 76/113/5 77/244/5 67/114/5
f 77/116/9 78/245/9 68/117/9
f 78/119/7 75/246/7 65/120/7
f 76/122/14 75/247/14 79/123/14
f 76/125/15 80/248/15 81/126/15
f 77/128/16 81/249/16 82/129/16
f 75/131/17 78/250/17 82/132/17
f 79/134/1 83/251/1 84/135/1
f 80/137/5 84/252/5 85/138/5
f 81/140/9 85/253/9 86/141/9
f 82/143/7 86/254/7 83/144/7
f 84/146/12 83/255/12 87/147/12
f 84/149/12 88/256/12 89/150/12
f 85/152/12 89/257/12 90/153/12
f 86/155/12 90/258/12 87/156/12
f 87/158/9 91/259/9 92/159/9
f 88/161/7 92/260/7 93/162/7
f 89/164/1 93/261/1 94/165/1
f 90/167/5 94/262/5 91/168/5
f 93/170/12 92/263/12 91/171/12
f 95/173/7 73/179/7 72/174/7
f 58/176/6 73/179/6 95/173/6
f 20/178/19 19/264/19 58/176/19
