# Blender v2.78 (sub 0) OBJ File: 'MediumHouse.blend'
# www.blender.org
mtllib House4.mtl
o Cube
v -0.825028 1.695846 3.368628
v -0.825028 2.081764 3.368628
v -0.825028 1.695846 2.982710
v -0.825028 2.081764 2.982710
v -0.439110 1.695846 3.368628
v -0.439110 2.081764 3.368628
v -0.439110 1.695846 2.982710
v -0.439110 2.081764 2.982710
v -0.868448 2.050842 3.412048
v -0.868448 2.050842 2.939290
v -0.395690 2.050842 2.939290
v -0.395690 2.050842 3.412048
v -0.868448 2.387519 3.412048
v -0.868448 2.387519 2.939290
v -0.395690 2.387519 2.939290
v -0.395690 2.387519 3.412048
v -0.816945 2.387519 3.360544
v -0.816945 2.387519 2.990793
v -0.447194 2.387519 2.990794
v -0.447194 2.387519 3.360544
v -0.816945 2.092364 3.360544
v -0.816945 2.092364 2.990793
v -0.447194 2.092364 2.990794
v -0.447194 2.092364 3.360544
v -1.000000 -0.040325 1.000000
v -1.000000 -0.040325 1.000000
v -1.000000 -0.040325 1.000000
v -1.000000 -0.040325 1.000000
v -1.000000 1.483531 0.999999
v -1.000000 -0.040325 -0.000000
v -1.000002 -0.040325 3.791640
v -0.000000 -0.040325 1.000000
v -1.000000 1.483531 0.999999
v -1.000000 1.483531 -0.000000
v -1.000000 -0.040325 -0.000000
v 0.000000 -0.040325 -0.000000
v -1.000002 -0.040325 3.791640
v -0.000000 -0.040325 1.000000
v -0.000002 -0.040325 3.791640
v -1.000001 0.282630 2.516018
v -1.000001 0.282630 2.310675
v -1.000000 0.282630 1.325918
v -1.000001 0.965223 1.325918
v -1.000002 0.282630 3.500775
v -1.000000 1.483531 0.999999
v -1.000000 1.483531 -0.000000
v -1.000000 1.483531 -1.000000
v -0.999999 -0.040325 -1.000000
v -0.999999 -0.040325 -1.000000
v 0.000000 -0.040325 -1.000000
v 1.000000 -0.040325 0.000000
v 1.000000 -0.040325 1.000000
v -1.000002 1.483531 3.791640
v 1.000000 -0.040325 1.000000
v 0.999999 -0.040325 3.791640
v -0.000002 0.296634 3.791640
v -0.484150 0.296634 3.791639
v -0.484150 0.979228 3.791640
v -0.000002 0.979228 3.791640
v -0.000002 1.939016 3.791640
v -1.000002 1.483531 3.791640
v -0.960515 0.282630 3.500775
v -0.960514 0.282630 2.516018
v -1.000001 0.965223 2.516018
v -1.000002 0.965223 3.500775
v -1.000001 0.965223 2.310675
v -0.960514 0.282630 2.310675
v -0.960514 0.282630 1.325918
v -0.960514 0.965223 1.325918
v -1.000000 1.483531 0.999999
v -1.000000 1.483531 -1.000000
v -0.999999 -0.040325 -1.000000
v 0.000000 -0.040325 -1.000000
v 1.000000 -0.040325 -1.000000
v 1.000000 -0.040325 0.000000
v 0.999999 -0.040325 3.791640
v 0.999998 1.483531 3.791641
v 0.500608 0.979228 3.791640
v 0.500608 0.296634 3.791640
v -0.960514 0.965223 2.516018
v -0.960515 0.965223 3.500775
v -0.960514 0.965223 2.310675
v -0.999999 -0.040325 -1.000000
v -1.000000 1.483531 -1.000000
v -1.000000 1.483531 -1.000000
v 1.000000 -0.040325 -1.000000
v 1.000000 -0.040325 1.000000
v 1.000000 -0.040325 1.000000
v 1.000001 -0.040325 -1.972457
v 1.000000 -0.040325 -1.000000
v 2.502374 -0.040325 0.000001
v 2.502374 -0.040325 0.301709
v 2.539414 -0.040325 0.301709
v 2.539414 -0.040325 1.000001
v 2.539415 -0.040325 -0.999999
v 2.539414 -0.040325 -0.303765
v 2.502374 -0.040325 -0.303765
v 0.999999 0.282630 2.516019
v 0.999999 0.282630 3.500776
v 0.999999 1.483531 1.000001
v 0.999999 0.965223 1.325919
v 1.000000 0.282630 1.325919
v 0.999999 0.282630 2.310676
v 0.999998 1.483531 3.791641
v 2.539415 -0.040325 -0.999999
v 2.502374 0.847709 0.301709
v 2.502374 0.847709 -0.303765
v 2.539414 0.847709 0.301709
v 2.539414 0.847709 0.000001
v 2.539414 1.964027 0.000001
v 2.539413 1.483531 1.000001
v 2.539415 1.483531 -0.999999
v 2.539414 0.847709 -0.303765
v 0.999999 0.965223 2.310676
v 0.999998 0.965223 3.500776
v 0.999999 0.965223 2.516019
v 0.946484 0.282630 2.516019
v 0.946484 0.282630 3.500776
v 2.539414 -0.040325 1.000001
v 2.539413 1.483531 1.000002
v 0.946485 0.965223 1.325918
v 0.946485 0.282630 1.325918
v 0.946484 0.282630 2.310676
v 0.999999 1.483531 1.000001
v 1.000001 1.483531 -0.999999
v 2.539415 1.483531 -0.999999
v 0.946484 0.965223 2.516019
v 0.946484 0.965223 2.310676
v 0.946484 0.965223 3.500776
v 0.999999 1.483531 1.000001
v 1.000001 1.483531 -0.999999
v 1.000001 1.483531 -0.999999
v 0.999999 1.483531 1.000001
v 1.000001 1.483531 -0.999999
v 1.000000 1.590579 0.000001
v 1.018124 1.521507 -0.044256
v 0.000000 1.910402 -0.000000
v -0.000000 1.910402 1.045419
v -1.045420 1.445334 1.045419
v -1.045419 1.448997 -0.000000
v 1.045419 1.910402 0.000000
v -0.000002 1.910402 3.963853
v -1.045421 1.445334 3.963853
v 0.000000 1.910402 -1.045419
v -1.045420 1.677060 1.045419
v -1.045419 1.680723 -0.000000
v 1.045419 1.445334 1.045419
v 1.045419 1.445334 -1.045419
v -1.045421 1.677059 3.963853
v 1.045418 1.445334 3.963854
v -0.000002 2.142128 3.963854
v -1.045419 1.445334 -1.045420
v -0.000000 2.142128 0.000000
v -1.045419 1.677060 -1.045419
v 2.654753 1.910402 0.000001
v 2.654752 1.445334 1.045420
v 2.654753 1.445334 -1.045418
v -0.000001 2.142128 1.045419
v 1.045418 1.677060 1.045420
v 1.045417 1.677059 3.963854
v 2.654752 1.677060 1.045421
v 2.654753 2.142128 0.000001
v 1.045420 1.677060 -1.045418
v 2.654753 1.677060 -1.045418
v 0.000000 2.142128 -1.045419
v 1.045419 2.142128 0.000001
v -0.484150 0.979228 3.743136
v -0.484150 0.296634 3.743136
v 0.500608 0.296634 3.743136
v 0.500608 0.979228 3.743136
v -1.045419 1.445635 -0.959605
v 0.000000 1.910402 -0.959605
v 1.045419 1.483510 -0.959605
v -1.045419 1.677360 -0.959605
v 2.654753 1.715235 -0.959603
v 2.654753 1.483510 -0.959604
v 1.045420 1.715235 -0.959604
v 0.000000 -0.040325 -1.000000
vt 0.1462 0.8538
vt 0.0163 0.9837
vt 0.0163 0.8538
vt 0.1462 0.8538
vt 0.0163 0.9837
vt 0.0163 0.8538
vt 0.1462 0.8538
vt 0.0163 0.9837
vt 0.0163 0.8538
vt 0.1462 0.8538
vt 0.0163 0.9837
vt 0.0163 0.8538
vt 0.0163 0.8538
vt 0.1462 0.9837
vt 0.0163 0.9837
vt 0.1462 0.8538
vt 0.0163 0.9837
vt 0.0163 0.8538
vt 0.0163 0.9837
vt 0.0163 0.9837
vt 0.1462 0.9837
vt 0.0163 0.9837
vt 0.0163 0.8538
vt 0.1462 0.9837
vt 0.0163 0.9837
vt 0.1462 0.8538
vt 0.0163 0.9837
vt 0.0163 0.8538
vt 0.1462 0.8538
vt 0.0163 0.9837
vt 0.0163 0.8538
vt 0.1462 0.8538
vt 0.0163 0.9837
vt 0.0163 0.8538
vt 0.1462 0.8538
vt 0.0163 0.9837
vt 0.0163 0.8538
vt 0.0163 0.8538
vt 0.1462 0.9837
vt 0.0163 0.9837
vt 0.1462 0.8538
vt 0.0163 0.9837
vt 0.0163 0.8538
vt 0.1462 0.8538
vt 0.0163 0.9837
vt 0.0163 0.8538
vt 0.1462 0.8538
vt 0.0163 0.9837
vt 0.0163 0.8538
vt 0.1462 0.8538
vt 0.0163 0.9837
vt 0.0163 0.8538
vt 0.1462 0.8538
vt 0.0163 0.8538
vt 0.1462 0.8538
vt 0.0163 0.9837
vt 0.0163 0.8538
vt 0.0813 0.8799
vt 0.0816 0.8802
vt 0.0812 0.8796
vt 0.0838 0.8539
vt 0.0846 0.8538
vt 0.0819 0.8799
vt 0.0973 0.8831
vt 0.0970 0.8829
vt 0.0484 0.8756
vt 0.0798 0.8931
vt 0.0798 0.8933
vt 0.0930 0.8958
vt 0.0459 0.8844
vt 0.0491 0.8748
vt 0.0767 0.8741
vt 0.0629 0.8731
vt 0.0842 0.8539
vt 0.0846 0.8538
vt 0.1039 0.8571
vt 0.1039 0.8571
vt 0.1107 0.8881
vt 0.1105 0.8879
vt 0.1053 0.8998
vt 0.0899 0.9071
vt 0.0375 0.8620
vt 0.0395 0.8616
vt 0.0771 0.9063
vt 0.0374 0.8732
vt 0.0503 0.8726
vt 0.0586 0.8720
vt 0.0596 0.8730
vt 0.0777 0.8625
vt 0.0611 0.8636
vt 0.0766 0.8735
vt 0.0771 0.8630
vt 0.1256 0.8657
vt 0.1106 0.8881
vt 0.1057 0.8993
vt 0.0998 0.9110
vt 0.0801 0.9064
vt 0.0781 0.9062
vt 0.0427 0.8944
vt 0.0772 0.9070
vt 0.0422 0.8916
vt 0.0291 0.8884
vt 0.0395 0.8889
vt 0.0556 0.8655
vt 0.0546 0.8652
vt 0.0485 0.8663
vt 0.0501 0.8726
vt 0.9299 0.1770
vt 0.9278 0.1759
vt 0.9292 0.1756
vt 0.0487 0.8669
vt 0.0618 0.8636
vt 0.0628 0.8731
vt 0.9337 0.1773
vt 0.9305 0.1752
vt 0.9338 0.1751
vt 0.1262 0.8662
vt 0.1266 0.8665
vt 0.0901 0.9065
vt 0.0869 0.9143
vt 0.0919 0.9156
vt 0.0892 0.9146
vt 0.0889 0.9145
vt 0.0570 0.9017
vt 0.0163 0.8988
vt 0.1002 0.9126
vt 0.0989 0.9109
vt 0.0854 0.9128
vt 0.0515 0.1356
vt 0.0523 0.1355
vt 0.0512 0.1373
vt 0.0869 0.9142
vt 0.0863 0.9176
vt 0.0863 0.9177
vt 0.0831 0.9199
vt 0.0843 0.9138
vt 0.0865 0.9218
vt 0.0873 0.9179
vt 0.0884 0.9181
vt 0.0884 0.9180
vt 0.0740 0.9236
vt 0.0507 0.9094
vt 0.0537 0.9004
vt 0.0404 0.8936
vt 0.0408 0.8947
vt 0.0838 0.9212
vt 0.0699 0.9156
vt 0.0711 0.9074
vt 0.0714 0.9079
vt 0.0572 0.9016
vt 0.0175 0.8966
vt 0.0979 0.9265
vt 0.0914 0.9144
vt 0.0904 0.9212
vt 0.0898 0.9220
vt 0.0485 0.9091
vt 0.0528 0.9006
vt 0.0522 0.9099
vt 0.0685 0.9157
vt 0.0302 0.8980
vt 0.0323 0.8993
vt 0.0475 0.9089
vt 0.9260 0.1815
vt 0.9275 0.1848
vt 0.9243 0.1827
vt 0.0760 0.9247
vt 0.9296 0.1832
vt 0.9319 0.1862
vt 0.9285 0.1850
vt 0.0753 0.9244
vt 0.0746 0.9240
vt 0.0949 0.9274
vt 0.0961 0.9270
vt 0.0856 0.9296
vt 0.0853 0.9289
vt 0.0955 0.9272
vt 0.9378 0.0736
vt 0.9255 0.0822
vt 0.9315 0.0702
vt 0.0440 0.8778
vt 0.0369 0.8742
vt 0.0338 0.8814
vt 0.0303 0.8875
vt 0.0393 0.8892
vt 0.0420 0.8832
vt 0.9327 0.9215
vt 0.9272 0.9160
vt 0.9327 0.9160
vt 0.1462 0.8538
vt 0.0163 0.9837
vt 0.0163 0.8538
vt 0.9272 0.9215
vt 0.9327 0.9160
vt 0.9327 0.9215
vt 0.8883 0.9270
vt 0.9016 0.9229
vt 0.9016 0.9240
vt 0.8952 0.9203
vt 0.8961 0.9195
vt 0.8961 0.9203
vt 0.9148 0.9270
vt 0.9151 0.9260
vt 0.8952 0.9203
vt 0.8961 0.9195
vt 0.8961 0.9203
vt 0.9272 0.9215
vt 0.9327 0.9160
vt 0.8961 0.9203
vt 0.8952 0.9195
vt 0.8961 0.9195
vt 0.8961 0.9203
vt 0.8952 0.9203
vt 0.8952 0.9195
vt 0.8961 0.9199
vt 0.8952 0.9195
vt 0.8961 0.9195
vt 0.9015 0.9043
vt 0.9146 0.9174
vt 0.9015 0.9174
vt 0.9146 0.9043
vt 0.9081 0.9174
vt 0.9081 0.9043
vt 0.8961 0.9203
vt 0.8961 0.9195
vt 0.8952 0.9203
vt 0.8961 0.9195
vt 0.8961 0.9203
vt 0.8952 0.9203
vt 0.8961 0.9195
vt 0.8961 0.9203
vt 0.8952 0.9203
vt 0.8957 0.9203
vt 0.8952 0.9195
vt 0.8961 0.9203
vt 0.8952 0.9203
vt 0.8961 0.9195
vt 0.8961 0.9203
vt 0.8961 0.9203
vt 0.8952 0.9195
vt 0.8961 0.9195
vt 0.8952 0.9203
vt 0.8961 0.9195
vt 0.8961 0.9203
vt 0.8952 0.9199
vt 0.8961 0.9195
vt 0.8961 0.9199
vt 0.8952 0.9195
vt 0.8961 0.9195
vt 0.8952 0.9203
vt 0.8952 0.9195
vt 0.8961 0.9203
vt 0.8952 0.9203
vt 0.8961 0.9203
vt 0.8961 0.9195
vt 0.8957 0.9203
vt 0.8952 0.9195
vt 0.8957 0.9195
vt 0.8961 0.9203
vt 0.8952 0.9203
vt 0.9147 0.9236
vt 0.8885 0.9237
vt 0.8881 0.9261
vt 0.1109 0.8880
vt 0.8961 0.9195
vt 0.8952 0.9203
vt 0.8961 0.9203
vt 0.9015 0.9043
vt 0.9015 0.9174
vt 0.8961 0.9203
vt 0.8952 0.9199
vt 0.9327 0.9215
vt 0.9272 0.9187
vt 0.9327 0.9187
vt 0.9272 0.9215
vt 0.9327 0.9187
vt 0.9327 0.9215
vt 0.0636 0.9385
vt 0.0511 0.9194
vt 0.0636 0.9194
vt 0.0762 0.9194
vt 0.0762 0.9385
vt 0.1462 0.9837
vt 0.1462 0.9837
vt 0.1462 0.9837
vt 0.1462 0.8538
vt 0.1462 0.9837
vt 0.1462 0.9837
vt 0.1462 0.9837
vt 0.1462 0.9837
vt 0.1462 0.8538
vt 0.1462 0.9837
vt 0.1462 0.9837
vt 0.1462 0.9837
vt 0.1462 0.9837
vt 0.1462 0.8538
vt 0.1462 0.9837
vt 0.1462 0.9837
vt 0.1462 0.9837
vt 0.1462 0.9837
vt 0.1462 0.9837
vt 0.0181 0.8729
vt 0.9281 0.1771
vt 0.9307 0.1772
vt 0.1264 0.8664
vt 0.0884 0.9141
vt 0.0523 0.1375
vt 0.0525 0.1357
vt 0.9286 0.1830
vt 0.9325 0.1845
vt 0.9336 0.0837
vt 0.0440 0.8779
vt 0.9272 0.9215
vt 0.1462 0.9837
vt 0.9272 0.9160
vt 0.8952 0.9195
vt 0.8952 0.9195
vt 0.9272 0.9160
vt 0.8952 0.9203
vt 0.9146 0.9043
vt 0.9146 0.9174
vt 0.8952 0.9195
vt 0.8952 0.9195
vt 0.8952 0.9203
vt 0.8952 0.9195
vt 0.8952 0.9203
vt 0.9016 0.9202
vt 0.9272 0.9215
vt 0.9272 0.9187
vt 0.0511 0.9385
vn -1.0000 0.0000 -0.0000
vn 0.0000 0.0000 -1.0000
vn 1.0000 0.0000 0.0000
vn -0.0000 0.0000 1.0000
vn 0.0000 -1.0000 -0.0000
vn -0.5801 -0.8146 0.0000
vn 0.5801 -0.8146 0.0000
vn 0.0000 -0.8146 -0.5801
vn 0.0000 -0.8146 0.5801
vn 0.0000 1.0000 0.0000
vn -0.9708 -0.2384 -0.0255
vn -0.9621 -0.2710 0.0290
vn 0.4038 -0.9149 -0.0000
vn 0.4065 -0.9137 0.0000
vn 0.4062 -0.9138 0.0000
vn -0.3765 -0.8464 0.3765
vn -0.4065 -0.9137 -0.0000
vn -0.4038 0.9149 0.0032
vn 0.0000 -0.9137 -0.4065
vn -0.0000 -0.9137 0.4065
vn -0.4065 0.9137 -0.0000
vn -0.4038 0.9149 -0.0032
vn 0.4065 0.9137 0.0000
vn -0.0000 0.9137 0.4065
vn 0.0000 0.9137 -0.4065
vn -0.3496 -0.8560 0.3808
vn 0.0315 0.0207 -0.9993
vn 0.4065 -0.9137 -0.0032
vn -0.3765 -0.8464 -0.3765
vn 0.4065 -0.9137 0.0032
vn -0.3780 -0.9258 -0.0000
vn 0.4062 -0.9138 0.0032
vn -0.0315 0.0207 -0.9993
usemtl Material.001
s off
f 4/1/1 1/2/1 2/3/1
f 8/4/2 3/5/2 4/6/2
f 6/7/3 7/8/3 8/9/3
f 2/10/4 5/11/4 6/12/4
f 1/13/5 7/14/5 5/11/5
f 8/4/6 12/15/6 6/12/6
f 10/16/2 15/17/2 11/18/2
f 2/10/7 10/19/7 4/6/7
f 6/7/8 9/20/8 2/3/8
f 8/9/9 10/21/9 11/22/9
f 13/23/10 20/24/10 17/25/10
f 11/26/3 16/27/3 12/28/3
f 9/29/1 14/30/1 10/31/1
f 12/32/4 13/33/4 9/34/4
f 19/35/1 24/36/1 20/37/1
f 15/38/10 18/39/10 19/40/10
f 15/41/10 20/42/10 16/43/10
f 13/44/10 18/45/10 14/46/10
f 23/47/10 21/48/10 24/49/10
f 17/50/3 22/51/3 18/52/3
f 20/53/2 21/48/2 17/54/2
f 18/55/4 23/56/4 19/57/4
f 26/58/4 28/59/4 25/60/4
f 26/58/4 33/61/4 29/62/4
f 27/63/4 35/64/4 30/65/4
f 28/59/4 37/66/4 25/60/4
f 27/63/4 38/67/4 28/59/4
f 29/62/1 35/64/1 26/58/1
f 32/68/5 30/65/5 36/69/5
f 28/59/5 39/70/5 31/71/5
f 42/72/1 25/60/1 41/73/1
f 29/62/4 70/74/4 45/75/4
f 34/76/4 45/75/4 46/77/4
f 30/65/4 48/78/4 49/79/4
f 50/80/5 30/65/5 49/79/5
f 51/81/5 32/68/5 36/69/5
f 37/66/4 61/82/4 53/83/4
f 54/84/5 39/70/5 38/67/5
f 58/85/4 61/82/4 31/71/4
f 32/68/4 54/84/4 38/67/4
f 44/86/10 63/87/10 40/88/10
f 33/61/1 43/89/1 66/90/1
f 41/73/10 68/91/10 42/72/10
f 42/72/4 69/92/4 43/89/4
f 46/77/4 47/93/4 34/76/4
f 34/76/1 48/78/1 35/64/1
f 50/80/4 83/94/4 73/95/4
f 74/96/5 36/69/5 50/80/5
f 51/81/4 87/97/4 52/98/4
f 55/99/4 88/100/4 76/101/4
f 55/99/4 78/102/4 79/103/4
f 40/88/4 80/104/4 64/105/4
f 65/106/2 62/107/2 44/86/2
f 63/108/1 81/109/1 80/110/1
f 64/105/5 81/111/5 65/106/5
f 33/61/4 61/82/4 70/74/4
f 43/89/5 82/112/5 66/90/5
f 66/90/2 67/113/2 41/73/2
f 68/114/1 82/115/1 69/116/1
f 71/117/4 85/118/4 47/93/4
f 74/96/4 75/119/4 51/81/4
f 75/119/5 92/120/5 87/97/5
f 95/121/5 96/122/5 97/123/5
f 88/100/4 52/98/4 87/97/4
f 76/101/3 88/100/3 103/124/3
f 104/125/4 55/99/4 76/101/4
f 90/126/4 95/121/4 86/127/4
f 87/97/4 119/128/4 88/100/4
f 92/129/3 91/130/3 106/131/3
f 93/132/2 106/133/2 108/134/2
f 111/135/3 94/136/3 108/134/3
f 110/137/3 109/138/3 113/139/3
f 97/123/4 113/139/4 107/140/4
f 100/141/3 104/125/3 114/142/3
f 98/143/10 118/144/10 99/145/10
f 88/100/4 120/146/4 100/141/4
f 101/147/4 122/148/4 102/149/4
f 102/149/10 123/150/10 103/124/10
f 100/141/4 77/151/4 104/125/4
f 125/152/2 105/153/2 90/126/2
f 109/138/5 106/133/5 107/140/5
f 111/135/4 119/128/4 94/136/4
f 112/154/1 105/153/1 126/155/1
f 116/156/4 117/157/4 98/143/4
f 114/142/2 123/150/2 128/158/2
f 101/147/5 128/158/5 121/159/5
f 115/160/2 118/144/2 129/161/2
f 115/160/5 127/162/5 116/156/5
f 118/163/3 127/164/3 129/165/3
f 120/146/4 130/166/4 100/141/4
f 123/167/3 121/168/3 128/169/3
f 100/141/4 133/170/4 124/171/4
f 126/155/5 132/172/5 112/154/5
f 131/173/4 132/172/4 125/152/4
f 136/174/11 130/166/11 135/175/11
f 135/175/12 134/176/12 136/174/12
f 168/177/4 170/178/4 167/179/4
f 57/180/3 167/181/3 58/85/3
f 59/182/5 167/181/5 170/183/5
f 78/102/1 169/184/1 79/103/1
f 56/185/10 79/103/10 169/184/10
f 138/186/13 140/187/13 137/188/13
f 141/189/5 138/190/5 137/191/5
f 138/192/14 143/193/14 139/194/14
f 171/195/15 144/196/15 172/197/15
f 145/198/1 140/199/1 139/200/1
f 173/201/16 144/196/16 148/202/16
f 139/203/1 149/204/1 145/205/1
f 147/206/17 142/207/17 138/186/17
f 142/208/4 149/209/4 143/210/4
f 153/211/18 146/212/18 145/213/18
f 171/214/1 154/215/1 152/216/1
f 147/217/19 155/218/19 156/219/19
f 148/220/20 176/221/20 173/222/20
f 158/223/21 149/209/21 151/224/21
f 159/225/3 150/226/3 147/227/3
f 160/228/4 142/229/4 150/230/4
f 158/223/21 153/231/21 145/213/21
f 174/232/22 153/233/22 154/234/22
f 147/235/4 161/236/4 159/237/4
f 155/238/3 161/239/3 156/240/3
f 163/241/2 157/242/2 148/243/2
f 175/244/3 155/245/3 176/246/3
f 159/237/23 151/247/23 160/248/23
f 153/211/23 158/249/23 159/250/23
f 165/251/21 154/252/21 153/233/21
f 166/253/24 161/239/24 162/254/24
f 177/255/25 162/256/25 175/257/25
f 166/253/24 153/231/24 159/250/24
f 163/258/23 165/259/23 153/233/23
f 177/255/25 153/233/25 166/253/25
f 144/196/2 163/260/2 148/202/2
f 154/261/2 144/196/2 152/262/2
f 49/79/4 72/263/4 83/94/4
f 163/258/25 175/257/25 164/264/25
f 164/265/3 176/246/3 157/266/3
f 141/267/20 176/221/20 155/268/20
f 140/269/1 174/270/1 171/214/1
f 141/271/26 172/272/26 173/273/26
f 140/274/13 172/275/13 137/276/13
f 178/277/27 85/278/27 172/279/27
f 178/277/2 125/280/2 90/281/2
f 4/1/1 3/282/1 1/2/1
f 8/4/2 7/14/2 3/5/2
f 6/7/3 5/283/3 7/8/3
f 2/10/4 1/284/4 5/11/4
f 1/13/5 3/285/5 7/14/5
f 8/4/6 11/286/6 12/15/6
f 10/16/2 14/287/2 15/17/2
f 2/10/7 9/288/7 10/19/7
f 6/7/8 12/289/8 9/20/8
f 8/9/9 4/1/9 10/21/9
f 13/23/10 16/290/10 20/24/10
f 11/26/3 15/291/3 16/27/3
f 9/29/1 13/292/1 14/30/1
f 12/32/4 16/293/4 13/33/4
f 19/35/1 23/294/1 24/36/1
f 15/38/10 14/295/10 18/39/10
f 15/41/10 19/296/10 20/42/10
f 13/44/10 17/297/10 18/45/10
f 23/47/10 22/298/10 21/48/10
f 17/50/3 21/299/3 22/51/3
f 20/53/2 24/300/2 21/48/2
f 18/55/4 22/298/4 23/56/4
f 26/58/4 27/63/4 28/59/4
f 26/58/4 25/60/4 33/61/4
f 27/63/4 26/58/4 35/64/4
f 28/59/4 31/71/4 37/66/4
f 27/63/4 32/68/4 38/67/4
f 29/62/1 34/76/1 35/64/1
f 32/68/5 27/63/5 30/65/5
f 28/59/5 38/67/5 39/70/5
f 44/86/1 40/88/1 37/66/1
f 42/72/1 43/89/1 25/60/1
f 37/66/1 40/88/1 41/73/1
f 43/89/1 33/61/1 25/60/1
f 37/66/1 41/73/1 25/60/1
f 29/62/4 33/61/4 70/74/4
f 34/76/4 29/62/4 45/75/4
f 30/65/4 35/64/4 48/78/4
f 50/80/5 36/69/5 30/65/5
f 51/81/5 52/98/5 32/68/5
f 37/66/4 31/71/4 61/82/4
f 54/84/5 55/99/5 39/70/5
f 31/71/4 39/70/4 57/180/4
f 39/70/4 56/185/4 57/180/4
f 60/301/4 61/82/4 58/85/4
f 58/85/4 59/182/4 60/301/4
f 31/71/4 57/180/4 58/85/4
f 32/68/4 52/98/4 54/84/4
f 44/86/10 62/107/10 63/87/10
f 41/73/1 40/88/1 64/105/1
f 65/106/1 44/86/1 37/66/1
f 66/90/1 41/73/1 64/105/1
f 65/106/1 37/66/1 53/83/1
f 64/105/1 65/106/1 53/83/1
f 53/83/1 33/61/1 66/90/1
f 66/90/1 64/105/1 53/83/1
f 41/73/10 67/113/10 68/91/10
f 42/72/4 68/91/4 69/92/4
f 46/77/4 71/117/4 47/93/4
f 34/76/1 47/93/1 48/78/1
f 50/80/4 49/79/4 83/94/4
f 74/96/5 51/81/5 36/69/5
f 51/81/4 75/119/4 87/97/4
f 55/99/4 54/84/4 88/100/4
f 77/151/4 60/301/4 78/102/4
f 60/301/4 59/182/4 78/102/4
f 56/185/4 39/70/4 79/103/4
f 77/151/4 78/102/4 55/99/4
f 79/103/4 39/70/4 55/99/4
f 40/88/4 63/87/4 80/104/4
f 65/106/2 81/111/2 62/107/2
f 63/108/1 62/302/1 81/109/1
f 64/105/5 80/104/5 81/111/5
f 33/61/4 53/83/4 61/82/4
f 43/89/5 69/92/5 82/112/5
f 66/90/2 82/112/2 67/113/2
f 68/114/1 67/303/1 82/115/1
f 71/117/4 84/304/4 85/118/4
f 74/96/4 86/127/4 75/119/4
f 94/136/5 87/97/5 92/120/5
f 75/119/5 91/305/5 92/120/5
f 92/120/5 93/132/5 94/136/5
f 91/305/5 75/119/5 97/123/5
f 86/127/5 95/121/5 97/123/5
f 97/123/5 75/119/5 86/127/5
f 88/100/4 54/84/4 52/98/4
f 98/143/3 99/145/3 76/101/3
f 88/100/3 100/141/3 101/147/3
f 102/149/3 103/124/3 88/100/3
f 88/100/3 101/147/3 102/149/3
f 98/143/3 76/101/3 103/124/3
f 104/125/4 77/151/4 55/99/4
f 90/126/4 105/153/4 95/121/4
f 87/97/4 94/136/4 119/128/4
f 107/306/3 106/131/3 91/130/3
f 91/130/3 97/307/3 107/306/3
f 93/132/2 92/120/2 106/133/2
f 108/134/3 109/138/3 110/137/3
f 110/137/3 111/135/3 108/134/3
f 94/136/3 93/132/3 108/134/3
f 96/122/3 95/121/3 113/139/3
f 112/154/3 110/137/3 113/139/3
f 113/139/3 95/121/3 112/154/3
f 97/123/4 96/122/4 113/139/4
f 116/156/3 98/143/3 103/124/3
f 114/142/3 101/147/3 100/141/3
f 116/156/3 103/124/3 114/142/3
f 76/101/3 99/145/3 115/160/3
f 116/156/3 114/142/3 104/125/3
f 104/125/3 76/101/3 115/160/3
f 115/160/3 116/156/3 104/125/3
f 98/143/10 117/157/10 118/144/10
f 88/100/4 119/128/4 120/146/4
f 101/147/4 121/159/4 122/148/4
f 102/149/10 122/148/10 123/150/10
f 100/141/4 124/171/4 77/151/4
f 125/152/2 126/155/2 105/153/2
f 107/140/5 113/139/5 109/138/5
f 109/138/5 108/134/5 106/133/5
f 111/135/4 120/146/4 119/128/4
f 112/154/4 95/121/4 105/153/4
f 116/156/4 127/162/4 117/157/4
f 114/142/2 103/124/2 123/150/2
f 101/147/5 114/142/5 128/158/5
f 115/160/2 99/145/2 118/144/2
f 115/160/5 129/161/5 127/162/5
f 118/163/3 117/308/3 127/164/3
f 120/146/10 111/135/10 130/166/10
f 123/167/3 122/309/3 121/168/3
f 100/141/4 130/166/4 133/170/4
f 126/155/4 125/152/4 132/172/4
f 131/173/4 134/176/4 132/172/4
f 136/174/2 133/170/2 130/166/2
f 135/175/4 132/172/4 134/176/4
f 168/177/4 169/310/4 170/178/4
f 57/180/3 168/311/3 167/181/3
f 170/183/5 78/102/5 59/182/5
f 59/182/5 58/85/5 167/181/5
f 78/102/1 170/183/1 169/184/1
f 169/184/10 168/311/10 56/185/10
f 57/180/10 56/185/10 168/311/10
f 138/186/28 139/312/28 140/187/28
f 141/189/29 147/313/29 138/190/29
f 138/192/14 142/314/14 143/193/14
f 171/195/30 152/262/30 144/196/30
f 145/198/1 146/315/1 140/199/1
f 173/201/31 172/197/31 144/196/31
f 139/203/1 143/316/1 149/204/1
f 147/206/17 150/317/17 142/207/17
f 142/208/4 151/318/4 149/209/4
f 171/214/1 174/270/1 154/215/1
f 147/217/19 141/319/19 155/218/19
f 148/220/20 157/320/20 176/221/20
f 158/223/21 145/198/21 149/209/21
f 159/225/3 160/321/3 150/226/3
f 160/228/4 151/247/4 142/229/4
f 174/232/22 146/212/22 153/233/22
f 147/235/4 156/322/4 161/236/4
f 155/238/3 162/323/3 161/239/3
f 163/241/2 164/324/2 157/242/2
f 175/244/3 162/256/3 155/245/3
f 159/237/23 158/249/23 151/247/23
f 166/253/24 159/225/24 161/239/24
f 177/255/25 166/325/25 162/256/25
f 177/255/25 163/241/25 153/233/25
f 144/196/2 165/326/2 163/260/2
f 154/261/2 165/326/2 144/196/2
f 49/79/4 48/78/4 72/263/4
f 163/258/25 177/255/25 175/257/25
f 164/265/3 175/244/3 176/246/3
f 141/267/20 173/222/20 176/221/20
f 140/269/1 146/212/1 174/270/1
f 141/271/5 137/327/5 172/272/5
f 140/274/32 171/328/32 172/275/32
f 178/277/2 48/329/2 85/278/2
f 178/277/33 172/279/33 125/280/33
