# Blender v2.75 (sub 0) OBJ File: 'BigHouse.blend'
# www.blender.org
mtllib BigHouse.mtl
o Cube
v -3.368626 1.695846 -0.825034
v -3.368626 2.081764 -0.825034
v -2.982708 1.695846 -0.825033
v -2.982708 2.081764 -0.825033
v -3.368627 1.695846 -0.439116
v -3.368627 2.081764 -0.439116
v -2.982709 1.695846 -0.439116
v -2.982709 2.081764 -0.439116
v -3.412046 2.050842 -0.868454
v -2.939288 2.050842 -0.868453
v -2.939289 2.050842 -0.395695
v -3.412047 2.050842 -0.395696
v -3.412046 2.387519 -0.868454
v -2.939288 2.387519 -0.868453
v -2.939289 2.387519 -0.395695
v -3.412047 2.387519 -0.395696
v -3.360543 2.387519 -0.816951
v -2.990792 2.387519 -0.816950
v -2.990793 2.387519 -0.447199
v -3.360543 2.387519 -0.447200
v -3.360543 2.092364 -0.816951
v -2.990792 2.092364 -0.816950
v -2.990793 2.092364 -0.447199
v -3.360543 2.092364 -0.447200
v -0.999998 -0.040325 -1.000002
v -0.999998 -0.040325 -1.000002
v -0.999998 -0.040325 -1.000002
v -0.999998 -0.040325 -1.000002
v -0.999998 1.483531 -1.000002
v 0.000002 -0.040325 -1.000000
v -3.791638 -0.040325 -1.000008
v -1.000000 -0.040325 -0.000002
v -0.999998 1.483531 -1.000002
v 0.000002 1.483531 -1.000000
v 0.000002 -0.040325 -1.000000
v 0.000000 -0.040325 0.000000
v -3.791638 -0.040325 -1.000008
v -1.000000 -0.040325 -0.000002
v -3.791640 -0.040325 -0.000008
v -2.516016 0.282630 -1.000005
v -2.310673 0.282630 -1.000005
v -1.325916 0.282630 -1.000003
v -1.325916 0.965223 -1.000003
v -3.500774 0.282630 -1.000008
v -0.999998 1.483531 -1.000002
v 0.000002 1.483531 -1.000000
v 1.000002 1.483531 -0.999998
v 1.000002 0.965223 -0.999998
v 0.326284 0.965223 -0.999999
v 0.326284 0.282630 -0.999999
v 1.000002 0.282630 -0.999998
v 1.000002 -0.040325 -0.999998
v 1.000002 -0.040325 -0.999998
v 1.000000 -0.040325 0.000002
v -0.000002 -0.040325 1.000000
v -1.000002 -0.040325 0.999998
v -3.791638 1.483531 -1.000009
v -1.000002 -0.040325 0.999998
v -3.791642 -0.040325 0.999992
v -3.791640 0.296634 -0.000008
v -3.791638 0.296634 -0.484156
v -3.791639 0.979228 -0.484156
v -3.791640 0.979228 -0.000008
v -3.791640 1.939016 -0.000009
v -3.791638 1.483531 -1.000009
v -3.500774 0.282630 -0.960521
v -2.516016 0.282630 -0.960519
v -2.516016 0.965223 -1.000006
v -3.500774 0.965223 -1.000008
v -2.310673 0.965223 -1.000005
v -2.310673 0.282630 -0.960518
v -1.325916 0.282630 -0.960516
v -1.325916 0.965223 -0.960516
v -0.999998 1.483531 -1.000002
v 1.000002 1.483531 -0.999998
v 1.000002 0.965223 -0.999998
v 0.326283 0.965223 -0.960512
v 1.000002 0.965223 -0.999998
v 1.311041 0.965223 -0.999997
v 1.311041 0.965223 -0.960510
v 0.326283 0.282630 -0.960512
v 1.311041 0.282630 -0.999997
v 1.000002 0.282630 -0.999998
v 1.000002 0.282630 -0.999998
v 1.311041 0.282630 -0.960510
v 1.000000 -0.040325 0.000002
v 0.999998 -0.040325 1.000002
v -0.000002 -0.040325 1.000000
v -3.791642 -0.040325 0.999992
v -3.791643 1.483531 0.999991
v -3.791641 0.979228 0.500601
v -3.791641 0.296634 0.500601
v -2.516016 0.965223 -0.960519
v -3.500774 0.965223 -0.960521
v -2.310673 0.965223 -0.960518
v 1.000002 -0.040325 -0.999998
v 1.000002 1.483531 -0.999998
v 1.000002 1.483531 -0.999998
v 2.726278 1.483531 -0.999994
v 2.501141 0.965223 -0.999995
v 1.516384 0.965223 -0.999997
v 1.516384 0.282630 -0.999997
v 2.501141 0.282630 -0.999994
v 2.726278 -0.040325 -0.999994
v 1.000002 -0.040325 -0.999998
v 0.999998 -0.040325 1.000002
v 0.999998 -0.040325 1.000002
v -1.000002 -0.040325 0.999998
v -1.000002 -0.040325 0.999998
v 2.726278 1.483531 -0.999994
v 2.501141 0.965223 -0.960507
v 1.516384 0.965223 -0.960510
v 1.516384 0.282630 -0.960510
v 2.501141 0.282630 -0.960507
v 2.726278 -0.040325 -0.999994
v 2.726276 -0.040325 0.000006
v 2.726274 -0.040325 1.000006
v 2.480500 -0.040325 1.000005
v 2.480501 -0.040325 0.894300
v 1.249036 -0.040325 0.894297
v 1.249036 -0.040325 1.000003
v 0.999998 -0.040325 1.000002
v -0.000005 -0.040325 2.502374
v -0.301714 -0.040325 2.502373
v -0.301714 -0.040325 2.539414
v -1.000005 -0.040325 2.539412
v 0.999995 -0.040325 2.539416
v 0.303760 -0.040325 2.539415
v 0.303761 -0.040325 2.502374
v -2.516021 0.282630 0.999995
v -3.500778 0.282630 0.999992
v -1.000003 1.483531 0.999997
v -1.325920 0.965223 0.999997
v -1.325920 0.282630 0.999997
v -2.310678 0.282630 0.999995
v -3.791643 1.483531 0.999991
v 2.726276 1.970376 0.000006
v 2.726276 0.979228 0.000006
v 2.726277 0.979228 -0.484142
v 2.726277 0.296634 -0.484142
v 2.726276 0.296634 0.000006
v 1.249036 -0.040325 1.000003
v 2.726274 1.483531 1.000006
v 2.726275 0.296634 0.500616
v 2.726275 0.979228 0.500616
v 2.726274 -0.040325 1.000006
v 2.480501 0.965223 0.894300
v 2.480500 -0.040325 1.000005
v 2.480500 -0.040325 1.000005
v 2.480500 0.965223 1.000005
v 1.249036 0.965223 0.894297
v 1.249036 0.965223 1.000003
v 1.249036 -0.040325 1.000003
v 0.999995 -0.040325 2.539416
v -0.301714 0.847709 2.502373
v 0.303761 0.847709 2.502374
v -0.301714 0.847709 2.539414
v -0.000006 0.847709 2.539414
v -0.000006 1.964027 2.539414
v -1.000006 1.483531 2.539412
v 0.999994 1.483531 2.539417
v 0.303760 0.847709 2.539415
v -2.310678 0.965223 0.999995
v -3.500778 0.965223 0.999992
v -2.516021 0.965223 0.999994
v -2.516021 0.282630 0.946480
v -3.500778 0.282630 0.946477
v -1.000005 -0.040325 2.539412
v -1.000006 1.483531 2.539412
v -1.325920 0.965223 0.946482
v -1.325920 0.282630 0.946482
v -2.310678 0.282630 0.946480
v -1.000003 1.483531 0.999997
v 2.647387 0.979228 -0.484142
v 2.647384 0.979228 0.500615
v 2.647387 0.296634 -0.484142
v 2.647384 0.296634 0.500615
v 2.726274 1.483531 1.000006
v 0.999997 1.483531 1.000002
v 0.999994 1.483531 2.539417
v -2.516021 0.965223 0.946480
v -2.310678 0.965223 0.946480
v -3.500778 0.965223 0.946477
v -1.000003 1.483531 0.999997
v 0.999997 1.483531 1.000002
v 0.999997 1.483531 1.000002
v -1.000003 1.483531 0.999997
v 0.999997 1.483531 1.000002
v -0.000002 1.590579 1.000000
v 0.044254 1.521507 1.018124
v 0.000000 1.910402 0.000000
v -1.045419 1.910402 -0.000002
v -1.045417 1.445334 -1.045421
v 0.000002 1.448997 -1.045419
v -0.000002 1.910402 1.045419
v -3.963853 1.910402 -0.000009
v -3.963851 1.445334 -1.045428
v 1.045419 1.910402 0.000002
v -1.045417 1.677060 -1.045422
v 0.000002 1.680723 -1.045419
v -1.045421 1.445334 1.045417
v 1.045417 1.445334 1.045421
v -3.963851 1.677059 -1.045428
v -3.963856 1.445334 1.045411
v -3.963854 2.142128 -0.000009
v 1.045422 1.445334 -1.045417
v -0.000000 2.142128 -0.000000
v 1.045421 1.677060 -1.045417
v -0.000006 1.910402 2.654753
v -1.045425 1.445334 2.654751
v 1.045414 1.445334 2.654755
v -1.045419 2.142128 -0.000003
v -1.045422 1.677060 1.045416
v -3.963856 1.677059 1.045410
v 2.850104 1.445335 -1.045413
v 2.850101 1.910403 0.000006
v 2.850099 1.445335 1.045425
v 2.850103 1.677060 -1.045413
v -1.045425 1.677060 2.654750
v -0.000006 2.142128 2.654753
v 1.045417 1.677060 1.045422
v 1.045413 1.677060 2.654755
v 2.850101 2.142128 0.000006
v 2.850099 1.677060 1.045426
v 1.045419 2.142128 0.000002
v -0.000003 2.142128 1.045419
v -3.743135 0.979228 -0.484156
v -3.743135 0.296634 -0.484156
v -3.743137 0.296634 0.500601
v -3.743137 0.979228 0.500601
vt 0.016303 0.853803
vt 0.146197 0.853803
vt 0.146197 0.983697
vt 0.016303 0.983697
vt 0.081331 0.879942
vt 0.081870 0.879902
vt 0.081635 0.880191
vt 0.081223 0.879599
vt 0.083781 0.853908
vt 0.084594 0.853813
vt 0.097321 0.883094
vt 0.096954 0.882882
vt 0.049113 0.874760
vt 0.048381 0.875561
vt 0.079832 0.893306
vt 0.079767 0.893141
vt 0.103928 0.857051
vt 0.092993 0.895765
vt 0.045903 0.884447
vt 0.059631 0.872952
vt 0.062935 0.873146
vt 0.076665 0.874111
vt 0.077716 0.862457
vt 0.050280 0.872556
vt 0.084187 0.853861
vt 0.125626 0.865699
vt 0.119833 0.874858
vt 0.107477 0.869260
vt 0.103704 0.879892
vt 0.112797 0.884044
vt 0.110731 0.888073
vt 0.110505 0.887887
vt 0.105273 0.899790
vt 0.089912 0.907083
vt 0.078075 0.906244
vt 0.037529 0.862015
vt 0.039537 0.861563
vt 0.077081 0.906321
vt 0.042656 0.894408
vt 0.041979 0.883196
vt 0.044032 0.877818
vt 0.037400 0.873219
vt 0.033762 0.881368
vt 0.018111 0.872902
vt 0.050127 0.872628
vt 0.058648 0.872043
vt 0.054611 0.865223
vt 0.048541 0.866328
vt 0.061057 0.863570
vt 0.062812 0.873143
vt 0.076643 0.873519
vt 0.077090 0.862962
vt 0.126221 0.866193
vt 0.126618 0.866523
vt 0.119680 0.874671
vt 0.108195 0.869839
vt 0.119527 0.874484
vt 0.123128 0.877654
vt 0.122682 0.877416
vt 0.103916 0.879568
vt 0.117010 0.886551
vt 0.112896 0.884222
vt 0.112846 0.884133
vt 0.117170 0.886268
vt 0.110640 0.888076
vt 0.105691 0.899284
vt 0.099780 0.911041
vt 0.090062 0.906537
vt 0.080085 0.906435
vt 0.077151 0.906986
vt 0.042152 0.891595
vt 0.017477 0.896609
vt 0.029073 0.888383
vt 0.039526 0.888928
vt 0.055577 0.865549
vt 0.048691 0.866881
vt 0.929221 0.175629
vt 0.929869 0.176998
vt 0.928073 0.177122
vt 0.927770 0.175910
vt 0.061800 0.863622
vt 0.933756 0.175084
vt 0.933662 0.177309
vt 0.930746 0.177230
vt 0.930533 0.175223
vt 0.110857 0.888038
vt 0.126419 0.866358
vt 0.943366 0.178131
vt 0.942204 0.179997
vt 0.939411 0.178584
vt 0.940313 0.176534
vt 0.145711 0.896438
vt 0.136659 0.894848
vt 0.126351 0.880651
vt 0.119373 0.888275
vt 0.129375 0.895966
vt 0.128728 0.898255
vt 0.100045 0.911288
vt 0.098917 0.910879
vt 0.136045 0.893460
vt 0.126776 0.881453
vt 0.119953 0.888028
vt 0.129070 0.896794
vt 0.146187 0.898411
vt 0.129511 0.896704
vt 0.125314 0.905489
vt 0.119855 0.912153
vt 0.118439 0.912132
vt 0.118706 0.912376
vt 0.104682 0.910686
vt 0.103555 0.911992
vt 0.100247 0.912643
vt 0.088406 0.914068
vt 0.086911 0.914312
vt 0.086946 0.914214
vt 0.084315 0.913792
vt 0.091897 0.915574
vt 0.089206 0.914631
vt 0.088925 0.914541
vt 0.053651 0.900434
vt 0.040810 0.894673
vt 0.073957 0.923637
vt 0.069869 0.915640
vt 0.071413 0.907902
vt 0.057020 0.901688
vt 0.016313 0.898846
vt 0.946183 0.181513
vt 0.944713 0.182215
vt 0.942791 0.180368
vt 0.944229 0.178982
vt 0.146187 0.917502
vt 0.133693 0.909711
vt 0.138352 0.904117
vt 0.133684 0.902420
vt 0.128694 0.907166
vt 0.103428 0.911901
vt 0.129027 0.926086
vt 0.125305 0.910975
vt 0.130092 0.916129
vt 0.120115 0.911748
vt 0.118521 0.912186
vt 0.119453 0.921533
vt 0.118603 0.912240
vt 0.121150 0.921400
vt 0.060478 0.133802
vt 0.067541 0.134653
vt 0.067917 0.139265
vt 0.060128 0.139087
vt 0.102707 0.921305
vt 0.103301 0.911810
vt 0.103986 0.921179
vt 0.091356 0.914440
vt 0.085420 0.912809
vt 0.051225 0.137295
vt 0.051528 0.135628
vt 0.052281 0.135505
vt 0.052542 0.135743
vt 0.052293 0.137477
vt 0.086268 0.917728
vt 0.086309 0.917621
vt 0.087312 0.917913
vt 0.086513 0.921777
vt 0.083135 0.919874
vt 0.090430 0.921249
vt 0.088427 0.918129
vt 0.088429 0.917983
vt 0.050663 0.909375
vt 0.030200 0.898012
vt 0.048541 0.909057
vt 0.052849 0.900575
vt 0.040418 0.893593
vt 0.083810 0.921216
vt 0.068498 0.915743
vt 0.071085 0.907412
vt 0.057179 0.901616
vt 0.074645 0.923994
vt 0.137602 0.905208
vt 0.130486 0.915030
vt 0.132954 0.902711
vt 0.125768 0.910778
vt 0.127168 0.926861
vt 0.097854 0.926467
vt 0.089807 0.922046
vt 0.047501 0.908856
vt 0.052202 0.909921
vt 0.032339 0.899250
vt 0.924323 0.182733
vt 0.926026 0.181541
vt 0.928646 0.183012
vt 0.927519 0.184758
vt 0.076020 0.924680
vt 0.928510 0.184982
vt 0.929559 0.183232
vt 0.932490 0.184454
vt 0.931945 0.186209
vt 0.075334 0.924350
vt 0.945011 0.186059
vt 0.944017 0.185163
vt 0.945531 0.183463
vt 0.946511 0.183989
vt 0.096111 0.927050
vt 0.094949 0.927439
vt 0.095530 0.927244
vt 0.085261 0.928886
vt 0.085578 0.929618
vt 0.923626 0.069467
vt 0.930687 0.073262
vt 0.925971 0.084500
vt 0.916992 0.082764
vt 0.043969 0.877950
vt 0.036907 0.874155
vt 0.030273 0.887451
vt 0.039253 0.889188
vt 0.932707 0.921484
vt 0.927239 0.921484
vt 0.927239 0.916016
vt 0.932707 0.916016
vt 0.896076 0.920324
vt 0.895249 0.920324
vt 0.895249 0.919497
vt 0.896076 0.919497
vt 0.901502 0.904304
vt 0.914644 0.904304
vt 0.914644 0.917447
vt 0.901502 0.917447
vn 0.000000 0.000000 -1.000000
vn 1.000000 0.000000 0.000000
vn -0.000000 0.000000 1.000000
vn -1.000000 0.000000 -0.000000
vn 0.000000 -1.000000 0.000000
vn 0.000000 -0.814600 -0.580100
vn -0.000000 -0.814600 0.580100
vn 0.580100 -0.814600 0.000000
vn -0.580100 -0.814600 -0.000000
vn 0.000000 1.000000 0.000000
vn 0.025500 -0.238400 -0.970800
vn -0.029000 -0.271000 -0.962100
vn 0.001600 -0.914300 0.405100
vn 0.212200 -0.953900 -0.212200
vn -0.000000 -0.913700 0.406500
vn -0.001600 -0.914300 0.405100
vn -0.212200 -0.953900 -0.212200
vn 0.000000 -0.913700 -0.406500
vn -0.003200 0.914900 -0.403800
vn 0.406500 -0.913700 0.000000
vn -0.406500 -0.913700 -0.000000
vn 0.000000 0.913700 -0.406500
vn 0.003200 0.914900 -0.403800
vn -0.000000 0.913700 0.406500
vn -0.406500 0.913700 -0.000000
vn 0.406500 0.913700 0.000000
usemtl Material.001
s off
f 2/1/1 4/2/1 3/3/1 1/4/1
f 4/1/2 8/2/2 7/3/2 3/4/2
f 8/1/3 6/2/3 5/3/3 7/4/3
f 6/1/4 2/2/4 1/3/4 5/4/4
f 1/1/5 3/2/5 7/3/5 5/4/5
f 6/1/6 8/2/6 11/3/6 12/4/6
f 11/1/2 10/2/2 14/3/2 15/4/2
f 4/1/7 2/2/7 9/3/7 10/4/7
f 2/1/8 6/2/8 12/3/8 9/4/8
f 8/1/9 4/2/9 10/3/9 11/4/9
f 13/1/10 16/2/10 20/3/10 17/4/10
f 12/1/3 11/2/3 15/3/3 16/4/3
f 10/1/1 9/2/1 13/3/1 14/4/1
f 9/1/4 12/2/4 16/3/4 13/4/4
f 20/1/1 19/2/1 23/3/1 24/4/1
f 15/1/10 14/2/10 18/3/10 19/4/10
f 16/1/10 15/2/10 19/3/10 20/4/10
f 14/1/10 13/2/10 17/3/10 18/4/10
f 24/1/10 23/2/10 22/3/10 21/4/10
f 18/1/3 17/2/3 21/3/3 22/4/3
f 17/1/2 20/2/2 24/3/2 21/4/2
f 19/1/4 18/2/4 22/3/4 23/4/4
f 26/5/3 27/6/3 28/7/3 25/8/3
f 26/5/3 25/8/3 33/9/3 29/10/3
f 27/6/3 26/5/3 35/11/3 30/12/3
f 28/7/3 31/13/3 37/14/3 25/8/3
f 27/6/3 32/15/3 38/16/3 28/7/3
f 26/5/1 29/10/1 34/17/1 35/11/1
f 36/18/5 32/15/5 27/6/5 30/12/5
f 28/7/5 38/16/5 39/19/5 31/13/5
f 40/20/1 41/21/1 42/22/1 43/23/1 33/9/1 25/8/1 37/14/1 44/24/1
f 29/10/3 33/9/3 74/25/3 45/10/3
f 34/17/3 29/10/3 45/10/3 46/17/3
f 35/11/1 34/17/1 47/26/1 48/27/1 49/28/1 50/29/1 51/30/1 52/31/1
f 30/12/3 35/11/3 52/31/3 53/32/3
f 54/33/5 36/18/5 30/12/5 53/32/5
f 55/34/5 56/35/5 32/15/5 36/18/5
f 37/14/3 31/13/3 65/36/3 57/37/3
f 38/16/5 58/38/5 59/39/5 39/19/5
f 39/19/4 60/40/4 61/41/4 62/42/4 63/43/4 64/44/4 65/36/4 31/13/4
f 32/15/3 56/35/3 58/38/3 38/16/3
f 40/20/10 44/24/10 66/45/10 67/46/10
f 40/20/1 68/47/1 69/48/1 44/24/1 37/14/1 57/37/1 33/9/1 43/23/1 70/49/1 41/21/1
f 42/22/10 41/21/10 71/50/10 72/51/10
f 43/23/4 42/22/4 72/51/4 73/52/4
f 46/17/3 75/53/3 47/26/3 34/17/3
f 48/27/3 47/26/3 98/54/3 76/55/3
f 77/56/5 49/28/5 48/27/5 76/55/5 78/57/5 79/58/5 80/59/5
f 50/29/2 49/28/2 77/56/2 81/60/2
f 82/61/10 83/62/10 84/63/10 51/30/10 50/29/10 81/60/10 85/64/10
f 52/31/3 51/30/3 84/63/3
f 54/33/3 53/32/3 96/65/3 86/66/3
f 87/67/5 55/34/5 36/18/5 54/33/5
f 55/34/3 88/68/3 108/69/3 56/35/3
f 59/39/3 58/38/3 109/70/3 89/71/3
f 59/39/4 90/72/4 64/44/4 63/43/4 91/73/4 92/74/4 60/40/4 39/19/4
f 68/47/4 40/20/4 67/46/4 93/75/4
f 44/24/2 69/48/2 94/76/2 66/45/2
f 93/77/1 67/78/1 66/79/1 94/80/1
f 69/48/5 68/47/5 93/75/5 94/76/5
f 33/9/3 57/37/3 65/36/3 74/25/3
f 70/49/5 43/23/5 73/52/5 95/81/5
f 41/21/2 70/49/2 95/81/2 71/50/2
f 73/82/1 72/83/1 71/84/1 95/85/1
f 53/32/3 52/31/3 105/86/3 96/65/3
f 75/53/3 97/87/3 98/54/3 47/26/3
f 80/88/1 85/89/1 81/90/1 77/91/1
f 76/55/3 98/54/3 78/57/3
f 78/57/1 98/54/1 99/92/1 100/93/1 101/94/1 102/95/1 82/61/1 79/58/1
f 79/58/4 82/61/4 85/64/4 80/59/4
f 82/61/1 102/95/1 103/96/1 100/93/1 99/92/1 104/97/1 105/86/1 83/62/1
f 52/31/3 84/63/3 83/62/3 105/86/3
f 86/66/3 106/98/3 87/67/3 54/33/3
f 87/67/3 107/99/3 88/68/3 55/34/3
f 101/94/5 100/93/5 111/100/5 112/101/5
f 102/95/2 101/94/2 112/101/2 113/102/2
f 103/96/10 102/95/10 113/102/10 114/103/10
f 100/93/4 103/96/4 114/103/4 111/100/4
f 110/104/2 115/105/2 104/97/2 99/92/2
f 86/66/5 96/65/5 115/105/5 116/106/5
f 106/98/5 86/66/5 116/106/5 117/107/5 118/108/5 119/109/5 120/110/5 121/111/5
f 107/99/3 87/67/3 106/98/3 122/112/3
f 108/69/5 88/68/5 123/113/5 124/114/5 125/115/5 126/116/5
f 88/68/5 107/99/5 127/117/5 128/118/5 129/119/5 123/113/5
f 109/70/3 58/38/3 56/35/3 108/69/3
f 130/120/3 131/121/3 89/71/3 109/70/3 132/122/3 133/123/3 134/124/3 135/125/3
f 136/126/3 90/72/3 59/39/3 89/71/3
f 97/87/10 110/104/10 99/92/10 98/54/10
f 111/127/1 114/128/1 113/129/1 112/130/1
f 137/131/2 138/132/2 139/133/2 140/134/2 141/135/2 116/106/2 115/105/2 110/104/2
f 115/105/3 96/65/3 105/86/3 104/97/3
f 106/98/3 121/111/3 142/136/3
f 143/137/2 117/107/2 116/106/2 141/135/2 144/138/2 145/139/2 138/132/2 137/131/2
f 117/107/3 146/140/3 148/141/3 118/108/3
f 147/142/4 119/109/4 118/108/4 148/141/4 149/143/4 150/144/4
f 120/145/3 119/146/3 147/147/3 151/148/3
f 152/149/2 153/150/2 142/136/2 121/111/2 120/110/2 151/151/2
f 122/112/3 106/98/3 142/136/3 153/150/3
f 122/112/3 154/152/3 127/117/3 107/99/3
f 108/69/3 126/116/3 168/153/3 109/70/3
f 155/154/3 124/155/3 123/156/3 129/157/3 156/158/3
f 157/159/2 125/115/2 124/114/2 155/160/2
f 158/161/3 159/162/3 160/163/3 126/116/3 125/115/3 157/159/3
f 127/117/3 161/164/3 159/162/3 158/161/3 162/165/3 128/118/3
f 156/166/4 129/119/4 128/118/4 162/165/4
f 130/120/3 135/125/3 163/167/3 133/123/3 132/122/3 136/126/3 89/71/3 131/121/3 164/168/3 165/169/3
f 131/121/10 130/120/10 166/170/10 167/171/10
f 132/122/4 109/70/4 168/153/4 169/172/4
f 134/124/4 133/123/4 170/173/4 171/174/4
f 135/125/10 134/124/10 171/174/10 172/175/10
f 132/122/5 173/176/5 90/72/5 136/126/5
f 174/177/5 139/133/5 138/132/5 145/139/5 175/178/5
f 140/134/3 139/133/3 174/177/3 176/179/3
f 144/138/10 141/135/10 140/134/10 176/179/10 177/180/10
f 178/181/2 146/140/2 117/107/2 143/137/2
f 145/139/1 144/138/1 177/180/1 175/178/1
f 150/144/5 152/149/5 151/151/5 147/142/5
f 148/141/3 146/140/3 149/143/3
f 179/182/3 122/112/3 153/150/3 152/149/3 150/144/3 149/143/3 146/140/3 178/181/3
f 122/112/2 179/182/2 180/183/2 154/152/2
f 162/165/5 158/161/5 157/159/5 155/160/5 156/166/5
f 160/163/3 169/172/3 168/153/3 126/116/3
f 161/164/1 127/117/1 154/152/1 180/183/1
f 130/120/4 165/169/4 181/184/4 166/170/4
f 163/167/2 135/125/2 172/175/2 182/185/2
f 133/123/5 163/167/5 182/185/5 170/173/5
f 164/168/2 131/121/2 167/171/2 183/186/2
f 165/169/5 164/168/5 183/186/5 181/184/5
f 183/187/3 167/188/3 166/189/3 181/190/3
f 169/172/10 160/163/10 184/191/10 132/122/10
f 182/192/3 172/193/3 171/194/3 170/195/3
f 132/122/3 184/191/3 187/196/3 173/176/3
f 175/197/2 177/198/2 176/199/2 174/200/2
f 143/137/10 185/201/10 179/182/10 178/181/10
f 180/183/3 179/182/3 186/202/3 161/164/3
f 185/201/3 188/203/3 186/202/3 179/182/3
f 189/204/11 190/205/11 187/196/11 184/191/11
f 189/204/12 186/202/12 188/203/12 190/205/12
f 227/206/4 228/207/4 229/208/4 230/209/4
f 62/42/3 61/41/3 228/210/3 227/211/3
f 91/73/5 63/43/5 62/42/5 227/211/5 230/212/5
f 92/74/1 91/73/1 230/212/1 229/213/1
f 228/210/10 61/41/10 60/40/10 92/74/10 229/213/10
f 192/214/13 193/215/13 194/216/13 191/217/13
f 191/1/14 195/2/14 201/3/14 192/4/14
f 193/214/15 192/215/15 196/216/15 197/217/15
f 191/214/16 194/215/16 206/216/16 198/217/16
f 193/218/1 199/219/1 200/220/1 194/221/1
f 195/214/17 191/215/17 198/216/17 202/217/17
f 199/218/1 193/219/1 197/220/1 203/221/1
f 192/214/18 201/215/18 204/216/18 196/217/18
f 196/218/4 205/219/4 203/220/4 197/221/4
f 207/218/19 200/219/19 199/220/19
f 194/218/1 200/219/1 208/220/1 206/221/1
f 201/222/20 195/223/20 209/224/20 210/225/20
f 195/222/21 202/223/21 211/224/21 209/225/21
f 212/218/22 199/219/22 203/220/22 205/221/22
f 201/218/3 213/219/3 214/220/3 204/221/3
f 204/218/4 214/219/4 205/220/4 196/221/4
f 198/214/15 206/215/15 215/216/15 216/217/15
f 202/214/18 198/215/18 216/216/18 217/217/18
f 212/218/22 207/219/22 199/220/22
f 208/218/23 200/219/23 207/220/23
f 206/218/1 208/219/1 218/220/1 215/221/1
f 213/218/4 201/219/4 210/220/4 219/221/4
f 209/218/3 220/219/3 219/220/3 210/221/3
f 202/218/2 221/219/2 222/220/2 211/221/2
f 211/218/3 222/219/3 220/220/3 209/221/3
f 213/218/24 212/219/24 205/220/24 214/221/24
f 223/218/2 216/219/2 215/220/2 218/221/2
f 221/218/3 202/219/3 217/220/3 224/221/3
f 224/218/2 217/219/2 216/220/2 223/221/2
f 207/218/24 212/219/24 213/220/24
f 225/218/22 208/219/22 207/220/22
f 208/218/22 225/219/22 223/220/22 218/221/22
f 226/218/25 213/219/25 219/220/25 220/221/25
f 221/218/26 226/219/26 220/220/26 222/221/26
f 225/218/24 221/219/24 224/220/24 223/221/24
f 226/218/25 207/219/25 213/220/25
f 221/218/24 225/219/24 207/220/24
f 226/218/26 221/219/26 207/220/26
